<?xml version="1.0" encoding="UTF-8"?>
<!DOCTYPE svg PUBLIC "-//W3C//DTD SVG 1.1//EN" "http://www.w3.org/Graphics/SVG/1.1/DTD/svg11.dtd">
<svg xmlns="http://www.w3.org/2000/svg" version="1.1" width="158px" height="110px" style="shape-rendering:geometricPrecision; text-rendering:geometricPrecision; image-rendering:optimizeQuality; fill-rule:evenodd; clip-rule:evenodd" xmlns:xlink="http://www.w3.org/1999/xlink">
<g><path style="opacity:0.927" fill="#7f7f7f" d="M 66.5,-0.5 C 71.1667,-0.5 75.8333,-0.5 80.5,-0.5C 96.0184,7.55949 99.8518,19.5595 92,35.5C 82.9237,45.1471 72.4237,46.9804 60.5,41C 47.9785,29.3069 47.3119,16.9736 58.5,4C 61.0993,2.20496 63.7659,0.704964 66.5,-0.5 Z M 80.5,12.5 C 82.2959,13.7927 83.9625,15.2927 85.5,17C 80.6667,23.1667 75.1667,28.6667 69,33.5C 66.0116,30.6774 63.1783,27.6774 60.5,24.5C 62.1667,23.1667 63.8333,21.8333 65.5,20.5C 66.5818,22.7837 68.2484,23.9504 70.5,24C 73.6693,19.9992 77.0027,16.1659 80.5,12.5 Z"/></g>
<g><path style="opacity:0.949" fill="#7f7f7f" d="M 100.5,127.5 C 97.5,127.5 94.5,127.5 91.5,127.5C 87.9222,124.367 86.5889,120.367 87.5,115.5C 77.4944,115.334 67.4944,115.5 57.5,116C 59.4165,120.994 58.0832,124.828 53.5,127.5C 50.8333,127.5 48.1667,127.5 45.5,127.5C 40.9168,124.828 39.5835,120.994 41.5,116C 34.7536,115.879 28.087,115.212 21.5,114C 16.4198,109.451 15.5865,104.285 19,98.5C 26.3334,93.2764 32.8334,87.2764 38.5,80.5C 32.8425,57.5365 27.3425,34.5365 22,11.5C 17.5986,10.5333 13.0986,10.2 8.5,10.5C 8.5,7.5 8.5,4.5 8.5,1.5C 14.5092,1.33385 20.5092,1.50051 26.5,2C 27.4162,2.37424 28.2496,2.87424 29,3.5C 31.4836,12.1012 33.6503,20.7679 35.5,29.5C 38.9604,29.5254 42.2937,30.1921 45.5,31.5C 55.5948,51.2532 70.5948,56.0866 90.5,46C 93.0482,43.1149 95.8815,40.6149 99,38.5C 103.811,39.4255 108.644,40.2589 113.5,41C 113.922,56.0886 113.922,71.2553 113.5,86.5C 91.1642,86.3334 68.8308,86.5 46.5,87C 39.6862,93.2368 32.6862,99.2368 25.5,105C 56.353,106.492 87.353,106.992 118.5,106.5C 118.5,109.5 118.5,112.5 118.5,115.5C 113.786,115.173 109.12,115.507 104.5,116.5C 105.542,121.043 104.208,124.709 100.5,127.5 Z"/></g>
</svg>
