<?xml version="1.0" encoding="UTF-8"?>
<!DOCTYPE svg PUBLIC "-//W3C//DTD SVG 1.1//EN" "http://www.w3.org/Graphics/SVG/1.1/DTD/svg11.dtd">
<svg xmlns="http://www.w3.org/2000/svg" version="1.1" width="158px" height="110px" style="shape-rendering:geometricPrecision; text-rendering:geometricPrecision; image-rendering:optimizeQuality; fill-rule:evenodd; clip-rule:evenodd" xmlns:xlink="http://www.w3.org/1999/xlink">
<g><path style="opacity:0.98" fill="#7f7f7f" d="M 17.5,7.5 C 26.1667,7.5 34.8333,7.5 43.5,7.5C 43.3335,16.8393 43.5002,26.1726 44,35.5C 44.4083,37.4096 45.5749,38.4096 47.5,38.5C 50.4241,36.9181 53.0908,34.9181 55.5,32.5C 57.9092,34.9181 60.5759,36.9181 63.5,38.5C 66.4241,36.9181 69.0908,34.9181 71.5,32.5C 73.6499,34.1491 75.6499,35.9824 77.5,38C 80.2175,39.033 82.0508,38.1997 83,35.5C 83.4998,26.1726 83.6665,16.8393 83.5,7.5C 92.1731,7.33358 100.84,7.50025 109.5,8C 114,9.83333 117.167,13 119,17.5C 119.667,32.8333 119.667,48.1667 119,63.5C 102.519,46.4359 84.0191,43.9359 63.5,56C 49.118,68.6907 44.9514,84.1907 51,102.5C 54.0737,108.808 58.2404,114.308 63.5,119C 48.1667,119.667 32.8333,119.667 17.5,119C 13,117.167 9.83333,114 8,109.5C 7.33333,78.8333 7.33333,48.1667 8,17.5C 10.0223,12.98 13.189,9.6467 17.5,7.5 Z"/></g>
<g><path style="opacity:0.957" fill="#808080" d="M 51.5,7.5 C 59.5,7.5 67.5,7.5 75.5,7.5C 75.6662,13.8421 75.4995,20.1754 75,26.5C 73.5341,24.6751 71.7008,24.1751 69.5,25C 67.6499,27.0176 65.6499,28.8509 63.5,30.5C 61.3501,28.8509 59.3501,27.0176 57.5,25C 55.2992,24.1751 53.4659,24.6751 52,26.5C 51.5005,20.1754 51.3338,13.8421 51.5,7.5 Z"/></g>
<g><path style="opacity:0.959" fill="#7f7f7f" d="M 79.5,55.5 C 107.978,53.8109 121.145,67.1442 119,95.5C 112.645,114.438 99.478,122.272 79.5,119C 60.5562,112.632 52.7229,99.4657 56,79.5C 59.349,66.9853 67.1824,58.9853 79.5,55.5 Z M 97.5,76.5 C 101.677,75.8416 103.177,77.5082 102,81.5C 96.5,87 91,92.5 85.5,98C 84.1667,98.6667 82.8333,98.6667 81.5,98C 78.6667,95.1667 75.8333,92.3333 73,89.5C 71.9202,86.7629 72.7536,85.0963 75.5,84.5C 78.2376,85.7283 80.5709,87.5617 82.5,90C 88.1581,86.5233 93.1581,82.0233 97.5,76.5 Z"/></g>
</svg>
