<svg xmlns="http://www.w3.org/2000/svg" width="24" height="25" viewBox="0 0 24 25" fill="none">
  <g clip-path="url(#clip0_269_4601)">
    <path d="M22.9115 1.30661L22.8827 1.28033C22.3319 0.777147 21.6178 0.5 20.872 0.5C20.036 0.5 19.2333 0.853912 18.6697 1.47091L8.01247 13.1384C7.91533 13.2447 7.84166 13.3702 7.79611 13.5068L6.54298 17.2635C6.39809 17.6978 6.47081 18.1782 6.73746 18.5483C7.00624 18.9214 7.43924 19.1441 7.89585 19.1441C8.09335 19.1441 8.28647 19.1035 8.46956 19.0234L12.0979 17.4361C12.2298 17.3784 12.3481 17.2937 12.4452 17.1874L23.1025 5.51993C24.2115 4.30591 24.1259 2.41595 22.9115 1.30661ZM8.94394 16.5695L9.67927 14.3651L9.74128 14.2972L11.135 15.5702L11.073 15.6381L8.94394 16.5695ZM21.583 4.13193L12.523 14.0507L11.1293 12.7778L20.1893 2.85891C20.3665 2.66491 20.609 2.55802 20.8721 2.55802C21.103 2.55802 21.3241 2.64391 21.4951 2.80019L21.5239 2.82646C21.9001 3.17008 21.9266 3.75573 21.583 4.13193Z" fill="#5971C0"/>
    <path d="M20.8442 9.99393C20.2759 9.99393 19.8152 10.4546 19.8152 11.0229V19.759C19.8152 21.202 18.6412 22.376 17.1983 22.376H4.7267C3.28368 22.376 2.10978 21.202 2.10978 19.759V7.38881C2.10978 5.94586 3.28375 4.77189 4.7267 4.77189H13.7537C14.322 4.77189 14.7827 4.31117 14.7827 3.74288C14.7827 3.17459 14.322 2.71387 13.7537 2.71387H4.7267C2.14889 2.71387 0.0517578 4.81106 0.0517578 7.38881V19.759C0.0517578 22.3367 2.14895 24.4339 4.7267 24.4339H17.1982C19.7759 24.4339 21.8731 22.3367 21.8731 19.759V11.0229C21.8732 10.4546 21.4125 9.99393 20.8442 9.99393Z" fill="#5971C0"/>
  </g>
  <defs>
    <clipPath id="clip0_269_4601">
      <rect width="23.9336" height="23.9336" fill="white" transform="translate(0 0.5)"/>
    </clipPath>
  </defs>
</svg>