<svg width="22" height="23" viewBox="0 0 22 23" fill="none" xmlns="http://www.w3.org/2000/svg">
<g clip-path="url(#clip0_545_178)">
<path d="M18.3581 2.90008C17.9257 2.46679 17.3507 2.22815 16.7389 2.22815H15.7056V2.01988C15.7056 1.44567 15.2384 0.978516 14.6642 0.978516H7.16637C6.59216 0.978516 6.12501 1.44567 6.12501 2.01988V2.22815H5.08793C3.82742 2.22815 2.80076 3.25477 2.79935 4.51661L2.78223 20.0121C2.78156 20.6245 3.01928 21.2004 3.45162 21.6337C3.88399 22.067 4.45903 22.3057 5.07081 22.3057H16.7218C17.9823 22.3057 19.009 21.279 19.0104 20.0172L19.0275 4.5217C19.0282 3.90925 18.7905 3.33333 18.3581 2.90008ZM7.37465 2.22815H14.4559V3.47779H7.37465V2.22815ZM17.762 20.0158C17.7614 20.5894 17.2947 21.056 16.7218 21.056H5.07081C4.79273 21.056 4.53135 20.9476 4.33482 20.7506C4.13829 20.5536 4.03024 20.2919 4.03053 20.0135L4.04765 4.51803C4.04828 3.94441 4.51493 3.47779 5.08793 3.47779H6.12501V3.68606C6.12501 4.26027 6.59216 4.72743 7.16637 4.72743H14.6642C15.2384 4.72743 15.7056 4.26027 15.7056 3.68606V3.47779H16.7389C17.017 3.47779 17.2784 3.58626 17.4749 3.7832C17.6715 3.98015 17.7795 4.24194 17.7792 4.52028L17.762 20.0158Z" fill="#00B5C1"/>
<path d="M11.116 9.3097H15.5552C15.9003 9.3097 16.18 9.02994 16.18 8.68488C16.18 8.33981 15.9003 8.06006 15.5552 8.06006H11.116C10.771 8.06006 10.4912 8.33981 10.4912 8.68488C10.4912 9.02994 10.771 9.3097 11.116 9.3097Z" fill="#00B5C1"/>
<path d="M11.116 13.4752H15.5552C15.9003 13.4752 16.18 13.1955 16.18 12.8504C16.18 12.5053 15.9003 12.2256 15.5552 12.2256H11.116C10.771 12.2256 10.4912 12.5053 10.4912 12.8504C10.4912 13.1955 10.771 13.4752 11.116 13.4752Z" fill="#00B5C1"/>
<path d="M15.5731 16.3906H11.116C10.771 16.3906 10.4912 16.6704 10.4912 17.0154C10.4912 17.3605 10.771 17.6403 11.116 17.6403H15.5731C15.9181 17.6403 16.1979 17.3605 16.1979 17.0154C16.1979 16.6704 15.9182 16.3906 15.5731 16.3906Z" fill="#00B5C1"/>
<path d="M8.45861 6.9833L7.01769 8.42421L6.67796 8.08444C6.43394 7.84042 6.03835 7.84042 5.79434 8.08444C5.55032 8.32841 5.55032 8.72404 5.79434 8.96805L6.5759 9.74966C6.69308 9.86684 6.85199 9.93269 7.01773 9.93269C7.18343 9.93269 7.34235 9.86688 7.45952 9.74966L9.34227 7.86696C9.58628 7.62299 9.58628 7.22735 9.34227 6.98334C9.09825 6.73928 8.70266 6.73928 8.45861 6.9833Z" fill="#00B5C1"/>
<path d="M8.45861 11.4667L7.01769 12.9076L6.67796 12.5678C6.43394 12.3238 6.03835 12.3238 5.79434 12.5678C5.55032 12.8118 5.55032 13.2074 5.79434 13.4515L6.5759 14.2331C6.69308 14.3502 6.85199 14.4161 7.01773 14.4161C7.18343 14.4161 7.34239 14.3503 7.45952 14.2331L9.34227 12.3503C9.58628 12.1064 9.58628 11.7107 9.34227 11.4667C9.09825 11.2227 8.70262 11.2227 8.45861 11.4667Z" fill="#00B5C1"/>
<path d="M8.45861 15.6327L7.01769 17.0736L6.67796 16.7339C6.43394 16.4898 6.03835 16.4898 5.79434 16.7339C5.55032 16.9778 5.55032 17.3734 5.79434 17.6175L6.5759 18.3991C6.69308 18.5163 6.85199 18.5821 7.01773 18.5821C7.18343 18.5821 7.34239 18.5163 7.45952 18.3991L9.34227 16.5163C9.58628 16.2724 9.58628 15.8767 9.34227 15.6327C9.09825 15.3887 8.70262 15.3887 8.45861 15.6327Z" fill="#00B5C1"/>
</g>
<defs>
<clipPath id="clip0_545_178">
<rect width="21.3271" height="21.3271" fill="white" transform="translate(0.240234 0.978516)"/>
</clipPath>
</defs>
</svg>
