<?xml version="1.0" encoding="UTF-8"?>
<!DOCTYPE svg PUBLIC "-//W3C//DTD SVG 1.1//EN" "http://www.w3.org/Graphics/SVG/1.1/DTD/svg11.dtd">
<svg xmlns="http://www.w3.org/2000/svg" version="1.1" width="158px" height="110px" style="shape-rendering:geometricPrecision; text-rendering:geometricPrecision; image-rendering:optimizeQuality; fill-rule:evenodd; clip-rule:evenodd" xmlns:xlink="http://www.w3.org/1999/xlink">
<g><path style="opacity:0.985" fill="#7f7f7f" d="M 57.5,-0.5 C 61.5,-0.5 65.5,-0.5 69.5,-0.5C 75.8256,2.16404 80.159,6.83071 82.5,13.5C 89.2555,15.0221 95.9222,16.8555 102.5,19C 102.957,19.414 103.291,19.914 103.5,20.5C 102.894,22.7094 102.227,24.876 101.5,27C 103.167,27.3333 104.833,27.6667 106.5,28C 108.792,31.4162 110.959,34.9162 113,38.5C 115.132,66.7969 116.965,95.1302 118.5,123.5C 118.377,124.925 118.043,126.258 117.5,127.5C 81.5,127.5 45.5,127.5 9.5,127.5C 10.0822,99.248 11.2489,70.9147 13,42.5C 14.1901,37.7868 16.1901,33.4535 19,29.5C 20.3068,28.2283 21.8068,27.2283 23.5,26.5C 22.1287,21.1804 21.7954,15.847 22.5,10.5C 30.7796,9.08976 39.113,7.92309 47.5,7C 50.4004,3.738 53.7337,1.238 57.5,-0.5 Z M 59.5,5.5 C 65.6112,3.37034 70.6112,5.037 74.5,10.5C 72.604,11.4656 70.604,11.7989 68.5,11.5C 68.1,15.4405 66.9334,19.1072 65,22.5C 64.4153,17.489 63.7486,12.489 63,7.5C 62.2904,6.02674 61.1238,5.36007 59.5,5.5 Z"/></g>
</svg>
