<?xml version="1.0" encoding="UTF-8"?>
<!DOCTYPE svg PUBLIC "-//W3C//DTD SVG 1.1//EN" "http://www.w3.org/Graphics/SVG/1.1/DTD/svg11.dtd">
<svg xmlns="http://www.w3.org/2000/svg" version="1.1" width="158px" height="110px" style="shape-rendering:geometricPrecision; text-rendering:geometricPrecision; image-rendering:optimizeQuality; fill-rule:evenodd; clip-rule:evenodd" xmlns:xlink="http://www.w3.org/1999/xlink">
<g><path style="opacity:0.895" fill="#808080" d="M 95.5,7.5 C 103.5,7.5 111.5,7.5 119.5,7.5C 119.5,15.5 119.5,23.5 119.5,31.5C 116.833,31.5 114.167,31.5 111.5,31.5C 111.665,28.4816 111.498,25.4816 111,22.5C 95.3194,38.3474 79.4861,54.014 63.5,69.5C 58.3481,64.8485 53.3481,60.0151 48.5,55C 47.8333,54.3333 47.1667,54.3333 46.5,55C 36.1667,65.3333 25.8333,75.6667 15.5,86C 12.9067,85.4535 10.7401,83.9535 9,81.5C 8.33333,80.8333 8.33333,80.1667 9,79.5C 21.5,67 34,54.5 46.5,42C 47.1667,41.3333 47.8333,41.3333 48.5,42C 53.1667,46.6667 57.8333,51.3333 62.5,56C 63.1667,56.6667 63.8333,56.6667 64.5,56C 77.8333,42.6667 91.1667,29.3333 104.5,16C 101.518,15.502 98.5184,15.3354 95.5,15.5C 95.5,12.8333 95.5,10.1667 95.5,7.5 Z"/></g>
<g><path style="opacity:0.995" fill="#808080" d="M 92.5,51.5 C 99.8409,51.3337 107.174,51.5003 114.5,52C 116,53.5 117.5,55 119,56.5C 119.5,77.4974 119.667,98.4974 119.5,119.5C 108.833,119.5 98.1667,119.5 87.5,119.5C 87.3334,98.4974 87.5,77.4974 88,56.5C 89.7073,54.9625 91.2073,53.2959 92.5,51.5 Z"/></g>
<g><path style="opacity:0.992" fill="#808080" d="M 52.5,75.5 C 59.8409,75.3337 67.1742,75.5003 74.5,76C 76,77.5 77.5,79 79,80.5C 79.4999,93.4957 79.6666,106.496 79.5,119.5C 68.8333,119.5 58.1667,119.5 47.5,119.5C 47.3334,106.496 47.5001,93.4957 48,80.5C 49.7073,78.9625 51.2073,77.2959 52.5,75.5 Z"/></g>
<g><path style="opacity:0.988" fill="#808080" d="M 12.5,91.5 C 19.8409,91.3337 27.1742,91.5003 34.5,92C 36,93.5 37.5,95 39,96.5C 39.4997,104.159 39.6664,111.826 39.5,119.5C 28.8333,119.5 18.1667,119.5 7.5,119.5C 7.33365,111.826 7.50031,104.159 8,96.5C 9.70733,94.9625 11.2073,93.2959 12.5,91.5 Z"/></g>
</svg>
